<svg xmlns="http://www.w3.org/2000/svg" width="1200" height="720" viewBox="0 0 1200 720" fill="none">
  <rect width="1200" height="720" rx="16" fill="#0E1628"/>
  <rect x="32" y="32" width="200" height="656" rx="12" fill="#132038"/>
  <rect x="56" y="64" width="152" height="14" rx="4" fill="#1E2F4D"/>
  <rect x="56" y="96" width="120" height="12" rx="3" fill="#243552"/>
  <rect x="56" y="124" width="152" height="40" rx="8" fill="#1A2740"/>
  <rect x="56" y="180" width="152" height="40" rx="8" fill="#15243D"/>
  <rect x="56" y="236" width="152" height="40" rx="8" fill="#15243D"/>
  <rect x="56" y="292" width="152" height="40" rx="8" fill="#15243D"/>
  <rect x="252" y="32" width="916" height="72" rx="12" fill="#132038"/>
  <rect x="280" y="56" width="200" height="20" rx="4" fill="#1E2F4D"/>
  <rect x="980" y="52" width="160" height="36" rx="8" fill="#2db3a6" fill-opacity="0.35"/>
  <rect x="252" y="128" width="440" height="240" rx="12" fill="#132038"/>
  <rect x="712" y="128" width="456" height="240" rx="12" fill="#132038"/>
  <rect x="280" y="160" width="160" height="16" rx="4" fill="#1E2F4D"/>
  <rect x="280" y="196" width="384" height="12" rx="3" fill="#243552"/>
  <rect x="280" y="220" width="320" height="12" rx="3" fill="#243552"/>
  <rect x="280" y="280" width="384" height="64" rx="8" fill="#0F1A2E"/>
  <rect x="740" y="160" width="160" height="16" rx="4" fill="#1E2F4D"/>
  <rect x="740" y="196" width="400" height="148" rx="8" fill="#0F1A2E"/>
  <rect x="252" y="392" width="916" height="296" rx="12" fill="#132038"/>
  <rect x="280" y="428" width="120" height="14" rx="4" fill="#1E2F4D"/>
  <rect x="280" y="460" width="860" height="44" rx="8" fill="#0F1A2E"/>
  <rect x="280" y="516" width="860" height="44" rx="8" fill="#0F1A2E"/>
  <rect x="280" y="572" width="860" height="44" rx="8" fill="#0F1A2E"/>
</svg>
