<svg xmlns="http://www.w3.org/2000/svg" width="1200" height="720" viewBox="0 0 1200 720" fill="none">
  <rect width="1200" height="720" rx="16" fill="#0E1628"/>
  <rect x="32" y="32" width="1136" height="48" rx="8" fill="#15243D"/>
  <circle cx="60" cy="56" r="6" fill="#2B3F63"/>
  <circle cx="84" cy="56" r="6" fill="#2B3F63"/>
  <circle cx="108" cy="56" r="6" fill="#2B3F63"/>
  <rect x="160" y="44" width="520" height="24" rx="6" fill="#1E2F4D"/>
  <rect x="700" y="44" width="120" height="24" rx="6" fill="#2db3a6" fill-opacity="0.35"/>
  <rect x="840" y="44" width="96" height="24" rx="6" fill="#1E2F4D"/>
  <rect x="32" y="112" width="560" height="320" rx="12" fill="#132038"/>
  <rect x="64" y="152" width="360" height="28" rx="6" fill="#1E2F4D"/>
  <rect x="64" y="196" width="280" height="18" rx="4" fill="#243552"/>
  <rect x="64" y="228" width="240" height="18" rx="4" fill="#243552"/>
  <rect x="64" y="288" width="160" height="44" rx="8" fill="#2db3a6" fill-opacity="0.45"/>
  <rect x="240" y="288" width="140" height="44" rx="8" fill="#1E2F4D"/>
  <rect x="624" y="112" width="544" height="576" rx="12" fill="#132038"/>
  <rect x="656" y="152" width="200" height="20" rx="4" fill="#1E2F4D"/>
  <rect x="656" y="188" width="480" height="120" rx="8" fill="#0F1A2E"/>
  <rect x="656" y="328" width="480" height="120" rx="8" fill="#0F1A2E"/>
  <rect x="656" y="468" width="220" height="160" rx="8" fill="#0F1A2E"/>
  <rect x="896" y="468" width="240" height="160" rx="8" fill="#0F1A2E"/>
</svg>
