<svg xmlns="http://www.w3.org/2000/svg" width="800" height="500" viewBox="0 0 800 500" fill="none">
  <rect width="800" height="500" rx="14" fill="#0E1628"/>
  <rect x="24" y="24" width="752" height="44" rx="8" fill="#132038"/>
  <rect x="40" y="38" width="140" height="16" rx="4" fill="#1E2F4D"/>
  <rect x="620" y="36" width="140" height="20" rx="6" fill="#2E6BFF" fill-opacity="0.3"/>
  <rect x="24" y="88" width="360" height="388" rx="12" fill="#132038"/>
  <rect x="400" y="88" width="376" height="180" rx="12" fill="#132038"/>
  <rect x="400" y="284" width="376" height="192" rx="12" fill="#132038"/>
  <rect x="48" y="120" width="120" height="12" rx="3" fill="#243552"/>
  <rect x="48" y="152" width="312" height="120" rx="8" fill="#0F1A2E"/>
  <rect x="48" y="292" width="312" height="80" rx="8" fill="#0F1A2E"/>
  <rect x="424" y="116" width="160" height="14" rx="4" fill="#1E2F4D"/>
  <rect x="424" y="144" width="328" height="100" rx="8" fill="#0F1A2E"/>
  <rect x="424" y="312" width="160" height="14" rx="4" fill="#1E2F4D"/>
  <rect x="424" y="340" width="328" height="108" rx="8" fill="#0F1A2E"/>
</svg>
